<!DOCTYPE svg PUBLIC "-//W3C//DTD SVG 1.1//EN" "http://www.w3.org/Graphics/SVG/1.1/DTD/svg11.dtd">
<!-- Uploaded to: SVG Repo, www.svgrepo.com, Transformed by: SVG Repo Mixer Tools -->
<svg version="1.1" id="_x32_" xmlns="http://www.w3.org/2000/svg" xmlns:xlink="http://www.w3.org/1999/xlink" width="800px" height="800px" viewBox="0 0 512 512" xml:space="preserve" fill="#ffffff">
<g id="SVGRepo_bgCarrier" stroke-width="0"/>
<g id="SVGRepo_tracerCarrier" stroke-linecap="round" stroke-linejoin="round"/>
<g id="SVGRepo_iconCarrier"> <style type="text/css">  .st0{fill:#ffc524;}  </style> <g> <path class="st0" d="M336.578,225.156c67.766,0,122.922,55.156,122.922,122.938s-55.156,122.938-122.922,122.938 c-67.781,0-122.938-55.156-122.938-122.938S268.797,225.156,336.578,225.156 M336.578,184.188 c-90.531,0-163.906,73.375-163.906,163.906S246.047,512,336.578,512c90.516,0,163.906-73.375,163.906-163.906 S427.094,184.188,336.578,184.188z"/> <path class="st0" d="M144.391,0C71,0,11.516,28.969,11.516,64.719v34.563C11.516,135.031,71,164,144.391,164 c73.359,0,132.859-28.969,132.859-64.719V64.719C277.25,28.969,217.75,0,144.391,0z M144.391,26.875 c64.688,0,105.969,24.844,105.969,37.844s-41.281,37.844-105.969,37.844c-64.719,0-105.984-24.844-105.984-37.844 S79.672,26.875,144.391,26.875z"/> <path class="st0" d="M144.375,216c24.578,0,47.594-3.281,67.344-8.938c-19.016,16.719-34.578,37.375-45.547,60.563 c-7.063,0.563-14.344,0.906-21.797,0.906c-73.359,0-132.859-29.016-132.859-64.75v-40.625c0-0.656,0.5-1.25,1.156-1.313 c0.328-0.094,0.656,0.063,0.891,0.406c-0.156,0,0,0.469,0.906,2.688C27.328,194.125,80.594,216,144.375,216z"/> <path class="st0" d="M148.047,348.094c0,7.969,0.5,15.75,1.547,23.438c-1.703,0.094-3.438,0.094-5.219,0.094 c-73.359,0-132.859-28.938-132.859-64.656v-40.75c0-0.563,0.5-1.125,1.156-1.219c0.531-0.063,0.875,0.25,1.125,0.625 c-0.313-0.406-0.641-0.625,0.672,2.5c12.859,29.156,66.125,51.063,129.906,51.063c1.969,0,4.016,0,5.969-0.188 C148.781,328.516,148.047,338.188,148.047,348.094z"/> <path class="st0" d="M193.203,470.281c-15.078,2.969-31.547,4.516-48.828,4.516c-73.359,0-132.859-28.922-132.859-64.734v-40.656 c0-0.656,0.5-1.156,1.156-1.219c0.5-0.094,0.984,0.156,1.141,0.656c-0.328-0.406-0.734-0.813,0.656,2.375 c12.859,29.25,66.125,51.125,129.906,51.125c6.297,0,12.609-0.25,18.672-0.656C170.578,439.469,180.828,455.875,193.203,470.281z"/> <path class="st0" d="M367.531,351.125c4.047-1.391,3.797-3.078,6.719-5.063c2.922-2,5.328-4.219,7.25-6.688 c1.891-2.438,3.297-5.063,4.203-7.875s1.359-5.75,1.359-8.813c0-5.375-0.906-10.219-2.719-14.516 c-1.813-4.281-4.656-7.922-8.563-10.953c-3.891-3.031-8.875-5.344-14.938-6.969c-4.781-1.281-10.328-2.063-16.641-2.328v-14.266 h-20.688v14.125h-26.078h-8.563v10.672c0,3.109-0.219,5.016,2.813,5.672c0.266,0.031,0.641,0.094,1.125,0.188 c0.5,0.094,1.391,0.25,2.703,0.5c1.313,0.219-0.359,0.531,1.922,0.953v95.078c-2.281,0.391-0.609,0.719-1.922,0.938 c-1.313,0.234-2.203,0.406-2.703,0.484c-0.484,0.078-0.859,0.156-1.125,0.203c-3.031,0.656-2.813,2.531-2.813,5.672v10.641h8.563 h26.078v13.25h20.688v-13.25h2.688c7.609,0,14.359-0.969,20.281-2.906c5.922-1.906,10.891-4.594,14.938-8 c4.063-3.406,7.125-7.484,9.266-12.188c2.109-4.719,3.156-9.844,3.156-15.406C394.531,364.875,385.531,355.188,367.531,351.125z M321.797,306.641h17.078c8.219,0,14.25,1.453,18.109,4.359c3.875,2.891,5.813,7.75,5.813,14.563 c0,6.594-2.156,11.406-6.438,14.406c-4.297,3.031-10.578,4.531-18.844,4.531h-15.719V306.641z M366.172,387.438 c-0.828,2.438-2.156,4.531-3.984,6.344c-1.859,1.813-4.297,3.266-7.359,4.344c-3.047,1.094-6.828,1.641-11.359,1.641h-21.672 v-38.406h21.594c4.281,0,7.938,0.422,10.953,1.266s5.5,2.063,7.422,3.672c1.938,1.609,3.359,3.531,4.25,5.797 c0.922,2.266,1.375,4.813,1.375,7.656C367.391,382.469,366.969,385.031,366.172,387.438z"/> </g> </g>
</svg>