<!DOCTYPE svg PUBLIC "-//W3C//DTD SVG 1.1//EN" "http://www.w3.org/Graphics/SVG/1.1/DTD/svg11.dtd">
<!-- Uploaded to: SVG Repo, www.svgrepo.com, Transformed by: SVG Repo Mixer Tools -->
<svg version="1.1" id="_x32_" xmlns="http://www.w3.org/2000/svg" xmlns:xlink="http://www.w3.org/1999/xlink" width="64px" height="64px" viewBox="0 0 512 512" xml:space="preserve" fill="#ffffff">
<g id="SVGRepo_bgCarrier" stroke-width="0"/>
<g id="SVGRepo_tracerCarrier" stroke-linecap="round" stroke-linejoin="round"/>
<g id="SVGRepo_iconCarrier"> <style type="text/css">  .st0{fill:#dbdbdb;}  </style> <g> <path class="st0" d="M502.469,280.563H380.594c-11.375,0-21.547,4.563-29,12c-7.438,7.453-12.016,17.625-12.016,29 c0,11.344,4.578,21.531,12.016,28.984c7.453,7.453,17.625,12,29,12.016h121.875c5.25,0,9.531-4.281,9.531-9.547v-62.922 C512,284.813,507.719,280.563,502.469,280.563z M381.281,335.219c-7.547,0-13.656-6.125-13.656-13.656 c0-7.563,6.109-13.688,13.656-13.688s13.672,6.125,13.672,13.688C394.953,329.094,388.828,335.219,381.281,335.219z"/> <path class="st0" d="M314.344,321.563c0.031-36.594,29.656-66.234,66.25-66.25H490v-78.719c0-32.781-25.25-59.656-57.375-62.297 v-0.25H78.031c-9.375,0-17-7.609-17-16.984c0-9.406,7.625-17,17-17h354.563c-0.469-34.141-28.281-61.688-62.531-61.688H100.094 c-53.781,0-97.531,42.453-99.875,95.672H0v4.422v72.813v202.25c0,55.281,44.813,100.094,100.094,100.094h327.359 C462,493.625,490,465.609,490,431.063v-43.281H380.594C344,387.781,314.375,358.125,314.344,321.563z M244.531,371.547 c-3.469,6.5-8.25,11.922-14.281,16.375c-6.063,4.422-13.297,7.734-21.719,9.906c-3.688,0.922-7.547,1.578-11.469,2.109v24.531 h-29.281v-24.031c-8.344-0.719-16.313-2.031-23.813-4.078c-11.469-3.141-26.484-15.813-26.484-15.813 c-1.281-0.75-2.141-2.078-2.328-3.547c-0.156-1.469,0.328-2.938,1.375-4l14.672-14.656c1.594-1.578,4.047-1.875,5.953-0.719 c0,0,10.969,9.531,19.313,11.813c8.313,2.266,16.563,3.406,24.797,3.406c10.391,0,18.984-1.844,25.797-5.5 c6.813-3.703,10.219-9.406,10.219-17.219c0-5.625-1.656-10.047-5.047-13.313c-3.344-3.219-9.016-5.266-17.016-6.156l-26.281-2.25 c-15.563-1.531-27.594-5.859-36-13c-8.469-7.125-12.656-17.953-12.656-32.422c0-8.016,1.609-15.141,4.859-21.422 c3.25-6.266,7.672-11.563,13.297-15.875c5.625-4.328,12.172-7.594,19.625-9.75c3.125-0.906,6.406-1.5,9.719-2.031v-21.141h29.281 v20.703c6.844,0.688,13.344,1.781,19.406,3.438c10.266,2.813,21.063,11.25,21.063,11.25c1.344,0.688,2.281,2.016,2.5,3.516 c0.234,1.516-0.266,3.016-1.344,4.125l-13.75,13.969c-1.469,1.484-3.734,1.859-5.609,0.906c0,0-8.141-5.813-15.188-7.641 c-7.047-1.844-14.422-2.766-22.234-2.766c-10.156,0-17.688,1.953-22.531,5.828c-4.875,3.906-7.297,9-7.297,15.25 c0,5.641,1.703,9.969,5.203,12.969c3.438,3.047,9.281,5,17.5,5.844l23.031,1.969c17.094,1.5,30,6.031,38.766,13.609 s13.141,18.609,13.141,33.078C249.719,357.5,247.984,365.063,244.531,371.547z"/> </g> </g>
</svg>